<svg xmlns="http://www.w3.org/2000/svg" viewBox="0 0 1024 512"><g id="frame"><rect width="1024" height="512" style="fill:none"/></g><g id="arrows"><path d="M274.75,237.32H383.36V165.93a11.26,11.26,0,0,1,19.21-8l90.14,90.14a11.26,11.26,0,0,1,0,15.91l-90.14,90.14a11.25,11.25,0,0,1-19.21-8V274.82H274.75V383.36h71.39a11.25,11.25,0,0,1,8,19.2L264,492.71a11.27,11.27,0,0,1-15.92,0L157.9,402.57a11.26,11.26,0,0,1,8-19.21h71.39V274.82H128.64v71.39a11.25,11.25,0,0,1-19.21,8L19.29,264a11.26,11.26,0,0,1,0-15.91L109.43,158a11.26,11.26,0,0,1,19.21,8v71.39H237.25V128.64H165.86a11.25,11.25,0,0,1-8-19.21l90.14-90.14a11.26,11.26,0,0,1,15.91,0l90.14,90.14a11.26,11.26,0,0,1-8,19.21H274.75V237.32Z"/><path d="M786.75,237.32H895.36V165.93a11.26,11.26,0,0,1,19.21-8l90.14,90.14a11.26,11.26,0,0,1,0,15.91l-90.14,90.14a11.25,11.25,0,0,1-19.21-8V274.82H786.75V383.36h71.39a11.25,11.25,0,0,1,8,19.2L776,492.71a11.27,11.27,0,0,1-15.92,0L669.9,402.57a11.26,11.26,0,0,1,8-19.21h71.39V274.82H640.64v71.39a11.25,11.25,0,0,1-19.21,8L531.29,264a11.26,11.26,0,0,1,0-15.91L621.43,158a11.26,11.26,0,0,1,19.21,8v71.39H749.25V128.64H677.86a11.25,11.25,0,0,1-8-19.21l90.14-90.14a11.26,11.26,0,0,1,15.91,0l90.14,90.14a11.26,11.26,0,0,1-8,19.21H786.75V237.32Z" style="fill:#fff"/></g></svg>