<svg xmlns="http://www.w3.org/2000/svg" viewBox="0 0 1024 512"><g id="frame"><rect width="1024" height="512" style="fill:none"/></g><g id="backspace"><path d="M438.4,83.2H200.74A57.62,57.62,0,0,0,160,100.07L24.44,235.63a28.8,28.8,0,0,0,0,40.73L160,411.92a57.63,57.63,0,0,0,40.73,16.88H438.4A57.6,57.6,0,0,0,496,371.2V140.8A57.6,57.6,0,0,0,438.4,83.2Zm14.4,288a14.42,14.42,0,0,1-14.4,14.4H200.74a14.3,14.3,0,0,1-10.18-4.22L65.17,256,190.55,130.62a14.31,14.31,0,0,1,10.18-4.22H438.4a14.42,14.42,0,0,1,14.4,14.4ZM400.29,189.09l-10.18-10.18a14.39,14.39,0,0,0-20.37,0L323.2,225.45l-46.55-46.54a14.38,14.38,0,0,0-20.36,0l-10.18,10.18a14.38,14.38,0,0,0,0,20.36L292.66,256l-46.55,46.55a14.38,14.38,0,0,0,0,20.36l10.18,10.18a14.38,14.38,0,0,0,20.36,0l46.55-46.54,46.55,46.54a14.39,14.39,0,0,0,20.37,0l10.18-10.18a14.4,14.4,0,0,0,0-20.36L353.75,256l46.55-46.55A14.41,14.41,0,0,0,400.29,189.09Z"/><path d="M950.4,83.2H712.74A57.62,57.62,0,0,0,672,100.07L536.44,235.63a28.8,28.8,0,0,0,0,40.73L672,411.92a57.63,57.63,0,0,0,40.73,16.88H950.4a57.6,57.6,0,0,0,57.6-57.6V140.8A57.6,57.6,0,0,0,950.4,83.2Zm14.4,288a14.42,14.42,0,0,1-14.4,14.4H712.74a14.3,14.3,0,0,1-10.18-4.22L577.17,256,702.55,130.62a14.31,14.31,0,0,1,10.18-4.22H950.4a14.42,14.42,0,0,1,14.4,14.4ZM912.29,189.09l-10.18-10.18a14.39,14.39,0,0,0-20.37,0L835.2,225.45l-46.55-46.54a14.38,14.38,0,0,0-20.36,0l-10.18,10.18a14.38,14.38,0,0,0,0,20.36L804.66,256l-46.55,46.55a14.38,14.38,0,0,0,0,20.36l10.18,10.18a14.38,14.38,0,0,0,20.36,0l46.55-46.54,46.55,46.54a14.39,14.39,0,0,0,20.37,0l10.18-10.18a14.4,14.4,0,0,0,0-20.36L865.75,256l46.55-46.55A14.41,14.41,0,0,0,912.29,189.09Z" style="fill:#fff"/></g></svg>