<svg xmlns="http://www.w3.org/2000/svg" viewBox="0 0 1024 512"><g id="frame"><rect width="1024" height="512" style="fill:none"/></g><g id="cog"><path d="M446.18,237.61,477,219.82a23.25,23.25,0,0,0,10.82-26.18,239.6,239.6,0,0,0-62-107.22,23.23,23.23,0,0,0-28.05-3.69L367,100.5a190.38,190.38,0,0,0-31.84-18.41V46.52A23.23,23.23,0,0,0,317.9,24.07a241.43,241.43,0,0,0-123.8,0,23.23,23.23,0,0,0-17.27,22.45V82.09A190.38,190.38,0,0,0,145,100.5L114.23,82.73a23.23,23.23,0,0,0-28,3.69,239.6,239.6,0,0,0-62,107.22A23.25,23.25,0,0,0,35,219.82l30.81,17.79a191.51,191.51,0,0,0,0,36.78L35,292.18a23.25,23.25,0,0,0-10.82,26.18,239.6,239.6,0,0,0,62,107.22,23.23,23.23,0,0,0,28.05,3.69L145,411.5a190.38,190.38,0,0,0,31.84,18.41v35.57a23.24,23.24,0,0,0,17.27,22.45,241.43,241.43,0,0,0,123.8,0,23.23,23.23,0,0,0,17.27-22.45V429.91A190.38,190.38,0,0,0,367,411.5l30.76,17.77a23.23,23.23,0,0,0,28.05-3.69,239.6,239.6,0,0,0,62-107.22A23.26,23.26,0,0,0,477,292.18l-30.81-17.79A191.51,191.51,0,0,0,446.18,237.61Zm-51,61,42.4,24.47a193.5,193.5,0,0,1-32.76,56.64l-42.41-24.49c-30.95,26.51-35.48,29.11-73.71,42.61v49a194.81,194.81,0,0,1-65.44,0v-49c-38.23-13.5-42.77-16.11-73.71-42.61l-42.41,24.49A193.5,193.5,0,0,1,74.4,323.07l42.4-24.47c-7.38-40-7.38-45.21,0-85.2L74.4,188.93a193.64,193.64,0,0,1,32.76-56.64l42.41,24.49c31-26.51,35.48-29.11,73.71-42.61v-49a194.29,194.29,0,0,1,65.44,0v49c38.23,13.5,42.77,16.11,73.71,42.61l42.41-24.49a193.5,193.5,0,0,1,32.76,56.64L395.2,213.4c7.38,40,7.38,45.21,0,85.2ZM256,163.1A92.9,92.9,0,1,0,348.9,256,93,93,0,0,0,256,163.1Zm0,139.35A46.45,46.45,0,1,1,302.45,256,46.51,46.51,0,0,1,256,302.45Z"/><path d="M958.18,237.61,989,219.82a23.25,23.25,0,0,0,10.82-26.18,239.6,239.6,0,0,0-62-107.22,23.23,23.23,0,0,0-28.05-3.69L879,100.5a190.38,190.38,0,0,0-31.84-18.41V46.52A23.23,23.23,0,0,0,829.9,24.07a241.43,241.43,0,0,0-123.8,0,23.23,23.23,0,0,0-17.27,22.45V82.09A190.38,190.38,0,0,0,657,100.5L626.23,82.73a23.23,23.23,0,0,0-28.05,3.69,239.6,239.6,0,0,0-62,107.22A23.25,23.25,0,0,0,547,219.82l30.81,17.79a191.51,191.51,0,0,0,0,36.78L547,292.18a23.25,23.25,0,0,0-10.82,26.18,239.6,239.6,0,0,0,62,107.22,23.23,23.23,0,0,0,28.05,3.69L657,411.5a190.38,190.38,0,0,0,31.84,18.41v35.57a23.24,23.24,0,0,0,17.27,22.45,241.43,241.43,0,0,0,123.8,0,23.23,23.23,0,0,0,17.27-22.45V429.91A190.38,190.38,0,0,0,879,411.5l30.76,17.77a23.23,23.23,0,0,0,28.05-3.69,239.6,239.6,0,0,0,62-107.22A23.26,23.26,0,0,0,989,292.18l-30.81-17.79A191.51,191.51,0,0,0,958.18,237.61Zm-51,61,42.4,24.47a193.5,193.5,0,0,1-32.76,56.64l-42.41-24.49c-30.95,26.51-35.48,29.11-73.71,42.61v49a194.81,194.81,0,0,1-65.44,0v-49c-38.23-13.5-42.77-16.11-73.71-42.61l-42.41,24.49a193.5,193.5,0,0,1-32.76-56.64l42.4-24.47c-7.38-40-7.38-45.21,0-85.2l-42.4-24.47a193.64,193.64,0,0,1,32.76-56.64l42.41,24.49c30.95-26.51,35.48-29.11,73.71-42.61v-49a194.29,194.29,0,0,1,65.44,0v49c38.23,13.5,42.77,16.11,73.71,42.61l42.41-24.49a193.5,193.5,0,0,1,32.76,56.64L907.2,213.4c7.38,40,7.38,45.21,0,85.2ZM768,163.1A92.9,92.9,0,1,0,860.9,256,93,93,0,0,0,768,163.1Zm0,139.35A46.45,46.45,0,1,1,814.45,256,46.51,46.51,0,0,1,768,302.45Z" style="fill:#fff"/></g></svg>