<svg xmlns="http://www.w3.org/2000/svg" viewBox="0 0 1024 512"><g id="frame"><rect width="1024" height="512" style="fill:none"/></g><g id="colors"><path d="M136,225.94a30,30,0,1,0,30,30A30,30,0,0,0,136,225.94ZM408.41,70.43C352.73,24.69,279.71,6.6,207.82,20.66c-93.46,18.18-168.64,93-187,186.26C5.16,285.84,28.4,364.67,84.37,423.07,128.7,469.38,187.19,496,241.75,496a152.35,152.35,0,0,0,24.47-1.87c22.68-3.47,41.8-17.53,52.58-38.53a79.43,79.43,0,0,0,.19-71.8,36.09,36.09,0,0,1,1.69-35.62,34.19,34.19,0,0,1,30-17.25h67.68c43.49,0,77.61-33.46,77.61-76.21A238.58,238.58,0,0,0,408.41,70.43Zm9.94,215.51H350.67a79.72,79.72,0,0,0-68.43,38.71,81.17,81.17,0,0,0-3.37,79.58,34.35,34.35,0,0,1-.19,30.84c-2.44,4.69-8.15,12.84-19.31,14.62-46.21,7.22-102.08-15.56-142.48-57.74C71.15,344.24,52.21,280,65,215.73,79.87,140.17,140.7,79.53,216.44,64.81c58.68-11.53,118.2,3.28,163.38,40.4A193.72,193.72,0,0,1,451,254.81c0,17.44-14.34,31.13-32.62,31.13ZM166,136a30,30,0,1,0,30,30A30,30,0,0,0,166,136Zm90-30.09a30,30,0,1,0,30,30A30,30,0,0,0,256,105.87ZM346,136a30,30,0,1,0,30,30A30,30,0,0,0,346,136Z"/><path d="M648,225.94a30,30,0,1,0,30,30A30,30,0,0,0,648,225.94ZM920.41,70.43C864.73,24.69,791.71,6.6,719.82,20.66c-93.46,18.18-168.64,93-187,186.26-15.65,78.92,7.59,157.75,63.56,216.15C640.7,469.38,699.19,496,753.75,496a152.35,152.35,0,0,0,24.47-1.87c22.68-3.47,41.8-17.53,52.58-38.53a79.43,79.43,0,0,0,.19-71.8,36.09,36.09,0,0,1,1.69-35.62,34.19,34.19,0,0,1,30-17.25h67.68c43.49,0,77.61-33.46,77.61-76.21A238.58,238.58,0,0,0,920.41,70.43Zm9.94,215.51H862.67a79.72,79.72,0,0,0-68.43,38.71,81.17,81.17,0,0,0-3.37,79.58,34.35,34.35,0,0,1-.19,30.84c-2.44,4.69-8.15,12.84-19.31,14.62-46.21,7.22-102.08-15.56-142.48-57.74C583.15,344.24,564.21,280,577,215.73c14.91-75.56,75.74-136.2,151.48-150.92,58.68-11.53,118.2,3.28,163.38,40.4A193.72,193.72,0,0,1,963,254.81c0,17.44-14.34,31.13-32.62,31.13ZM678,136a30,30,0,1,0,30,30A30,30,0,0,0,678,136Zm90-30.09a30,30,0,1,0,30,30A30,30,0,0,0,768,105.87ZM858,136a30,30,0,1,0,30,30A30,30,0,0,0,858,136Z" style="fill:#fff"/></g></svg>