<svg xmlns="http://www.w3.org/2000/svg" viewBox="0 0 1024 512"><g id="frame"><rect width="1024" height="512" style="fill:none"/></g><g id="exclamation-triangle"><path d="M490.6,409.34c15.38,26.67-3.93,60-34.65,60H56.05c-30.79,0-50-33.38-34.65-60l200-346.69c15.39-26.67,53.94-26.62,69.3,0l200,346.69ZM256,337.67A38.33,38.33,0,1,0,294.33,376,38.33,38.33,0,0,0,256,337.67ZM219.61,199.88l6.18,113.33a10,10,0,0,0,10,9.46h40.46a10,10,0,0,0,10-9.46l6.18-113.33a10,10,0,0,0-10-10.55H229.59a10,10,0,0,0-10,10.55Z"/><path d="M1002.6,409.34c15.38,26.67-3.93,60-34.65,60H568.05c-30.79,0-50-33.38-34.65-60l200-346.69c15.39-26.67,53.94-26.62,69.3,0l200,346.69ZM768,337.67A38.33,38.33,0,1,0,806.33,376,38.33,38.33,0,0,0,768,337.67ZM731.61,199.88l6.18,113.33a10,10,0,0,0,10,9.46h40.46a10,10,0,0,0,10-9.46l6.18-113.33a10,10,0,0,0-10-10.55H741.59a10,10,0,0,0-10,10.55Z" style="fill:#fff"/></g></svg>