<svg xmlns="http://www.w3.org/2000/svg" viewBox="0 0 1024 512"><g id="frame"><rect width="1024" height="512" style="fill:none"/></g><g id="external-link"><path d="M482.5,16l-153,.16A13.49,13.49,0,0,0,316,29.66V60.89a13.5,13.5,0,0,0,13.5,13.5h.27l69-2.55,1.93,1.93L139.3,335.21a11.26,11.26,0,0,0,0,15.91l0,0,21.56,21.56a11.26,11.26,0,0,0,15.91,0l0,0L438.23,111.27l1.93,1.93-2.55,69A13.5,13.5,0,0,0,450.84,196h31.5a13.49,13.49,0,0,0,13.5-13.5l.16-153A13.49,13.49,0,0,0,482.5,16ZM421,286H406a15,15,0,0,0-15,15V445.38a5.62,5.62,0,0,1-5.62,5.62H66.62A5.62,5.62,0,0,1,61,445.38V126.62A5.62,5.62,0,0,1,66.62,121H211a15,15,0,0,0,15-15V91a15,15,0,0,0-15-15H61a45,45,0,0,0-45,45V451a45,45,0,0,0,45,45H391a45,45,0,0,0,45-45h0V301A15,15,0,0,0,421,286Z"/><path d="M994.5,16l-153,.16A13.49,13.49,0,0,0,828,29.66V60.89a13.5,13.5,0,0,0,13.5,13.5h.27l69-2.55,1.93,1.93L651.3,335.21a11.26,11.26,0,0,0,0,15.91l0,0,21.56,21.56a11.26,11.26,0,0,0,15.91,0l0,0L950.23,111.27l1.93,1.93-2.55,69A13.5,13.5,0,0,0,962.84,196h31.5a13.49,13.49,0,0,0,13.5-13.5l.16-153A13.49,13.49,0,0,0,994.5,16ZM933,286H918a15,15,0,0,0-15,15V445.38a5.62,5.62,0,0,1-5.62,5.62H578.62a5.62,5.62,0,0,1-5.62-5.62V126.62a5.62,5.62,0,0,1,5.62-5.62H723a15,15,0,0,0,15-15V91a15,15,0,0,0-15-15H573a45,45,0,0,0-45,45V451a45,45,0,0,0,45,45H903a45,45,0,0,0,45-45h0V301A15,15,0,0,0,933,286Z" style="fill:#fff"/></g></svg>