<svg xmlns="http://www.w3.org/2000/svg" viewBox="0 0 1024 512"><g id="frame"><rect width="1024" height="512" style="fill:none"/></g><g id="eye"><path d="M256,162.67a92.32,92.32,0,0,0-26,4.16,46.13,46.13,0,0,1,6,22.5A46.66,46.66,0,0,1,189.33,236a46.13,46.13,0,0,1-22.5-6A93.11,93.11,0,1,0,256,162.67Zm237.1,81.16C447.91,155.66,358.44,96,256,96S64.07,155.7,18.9,243.84a26.94,26.94,0,0,0,0,24.33C64.09,356.34,153.56,416,256,416s191.93-59.7,237.1-147.84A26.94,26.94,0,0,0,493.1,243.83ZM256,376c-82.21,0-157.58-45.83-198.28-120C98.42,181.83,173.78,136,256,136s157.58,45.83,198.28,120C413.58,330.17,338.22,376,256,376Z"/><path d="M768,162.67a92.32,92.32,0,0,0-26,4.16,46.13,46.13,0,0,1,6,22.5A46.66,46.66,0,0,1,701.33,236a46.13,46.13,0,0,1-22.5-6A93.11,93.11,0,1,0,768,162.67Zm237.1,81.16C959.91,155.66,870.44,96,768,96S576.07,155.7,530.9,243.84a26.94,26.94,0,0,0,0,24.33C576.09,356.34,665.56,416,768,416s191.93-59.7,237.1-147.84A26.94,26.94,0,0,0,1005.1,243.83ZM768,376c-82.21,0-157.58-45.83-198.28-120C610.42,181.83,685.78,136,768,136s157.58,45.83,198.28,120C925.58,330.17,850.22,376,768,376Z" style="fill:#fff"/></g></svg>