<svg xmlns="http://www.w3.org/2000/svg" viewBox="0 0 1024 512"><g id="frame"><rect width="1024" height="512" style="fill:none"/></g><g id="keyboard"><path d="M456,96H56a40,40,0,0,0-40,40V376a40,40,0,0,0,40,40H456a40,40,0,0,0,40-40V136A40,40,0,0,0,456,96Zm6.67,280a6.67,6.67,0,0,1-6.67,6.67H56A6.67,6.67,0,0,1,49.33,376V136A6.67,6.67,0,0,1,56,129.33H456a6.67,6.67,0,0,1,6.67,6.67Zm-305-108.33V244.33a10,10,0,0,0-10-10H124.33a10,10,0,0,0-10,10v23.34a10,10,0,0,0,10,10h23.34A10,10,0,0,0,157.67,267.67Zm80,0V244.33a10,10,0,0,0-10-10H204.33a10,10,0,0,0-10,10v23.34a10,10,0,0,0,10,10h23.34A10,10,0,0,0,237.67,267.67Zm80,0V244.33a10,10,0,0,0-10-10H284.33a10,10,0,0,0-10,10v23.34a10,10,0,0,0,10,10h23.34A10,10,0,0,0,317.67,267.67Zm80,0V244.33a10,10,0,0,0-10-10H364.33a10,10,0,0,0-10,10v23.34a10,10,0,0,0,10,10h23.34A10,10,0,0,0,397.67,267.67ZM117.67,336V312.67a10,10,0,0,0-10-10H84.33a10,10,0,0,0-10,10V336a10,10,0,0,0,10,10h23.34A10,10,0,0,0,117.67,336Zm320,0V312.67a10,10,0,0,0-10-10H404.33a10,10,0,0,0-10,10V336a10,10,0,0,0,10,10h23.34A10,10,0,0,0,437.67,336Zm-320-136.67V176a10,10,0,0,0-10-10H84.33a10,10,0,0,0-10,10v23.33a10,10,0,0,0,10,10h23.34A10,10,0,0,0,117.67,199.33Zm80,0V176a10,10,0,0,0-10-10H164.33a10,10,0,0,0-10,10v23.33a10,10,0,0,0,10,10h23.34A10,10,0,0,0,197.67,199.33Zm80,0V176a10,10,0,0,0-10-10H244.33a10,10,0,0,0-10,10v23.33a10,10,0,0,0,10,10h23.34A10,10,0,0,0,277.67,199.33Zm80,0V176a10,10,0,0,0-10-10H324.33a10,10,0,0,0-10,10v23.33a10,10,0,0,0,10,10h23.34A10,10,0,0,0,357.67,199.33Zm80,0V176a10,10,0,0,0-10-10H404.33a10,10,0,0,0-10,10v23.33a10,10,0,0,0,10,10h23.34A10,10,0,0,0,437.67,199.33ZM356,331V317.67a10,10,0,0,0-10-10H166a10,10,0,0,0-10,10V331a10,10,0,0,0,10,10H346A10,10,0,0,0,356,331Z"/><path d="M968,96H568a40,40,0,0,0-40,40V376a40,40,0,0,0,40,40H968a40,40,0,0,0,40-40V136A40,40,0,0,0,968,96Zm6.67,280a6.67,6.67,0,0,1-6.67,6.67H568a6.67,6.67,0,0,1-6.67-6.67V136a6.67,6.67,0,0,1,6.67-6.67H968a6.67,6.67,0,0,1,6.67,6.67Zm-305-108.33V244.33a10,10,0,0,0-10-10H636.33a10,10,0,0,0-10,10v23.34a10,10,0,0,0,10,10h23.34A10,10,0,0,0,669.67,267.67Zm80,0V244.33a10,10,0,0,0-10-10H716.33a10,10,0,0,0-10,10v23.34a10,10,0,0,0,10,10h23.34A10,10,0,0,0,749.67,267.67Zm80,0V244.33a10,10,0,0,0-10-10H796.33a10,10,0,0,0-10,10v23.34a10,10,0,0,0,10,10h23.34A10,10,0,0,0,829.67,267.67Zm80,0V244.33a10,10,0,0,0-10-10H876.33a10,10,0,0,0-10,10v23.34a10,10,0,0,0,10,10h23.34A10,10,0,0,0,909.67,267.67ZM629.67,336V312.67a10,10,0,0,0-10-10H596.33a10,10,0,0,0-10,10V336a10,10,0,0,0,10,10h23.34A10,10,0,0,0,629.67,336Zm320,0V312.67a10,10,0,0,0-10-10H916.33a10,10,0,0,0-10,10V336a10,10,0,0,0,10,10h23.34A10,10,0,0,0,949.67,336Zm-320-136.67V176a10,10,0,0,0-10-10H596.33a10,10,0,0,0-10,10v23.33a10,10,0,0,0,10,10h23.34A10,10,0,0,0,629.67,199.33Zm80,0V176a10,10,0,0,0-10-10H676.33a10,10,0,0,0-10,10v23.33a10,10,0,0,0,10,10h23.34A10,10,0,0,0,709.67,199.33Zm80,0V176a10,10,0,0,0-10-10H756.33a10,10,0,0,0-10,10v23.33a10,10,0,0,0,10,10h23.34A10,10,0,0,0,789.67,199.33Zm80,0V176a10,10,0,0,0-10-10H836.33a10,10,0,0,0-10,10v23.33a10,10,0,0,0,10,10h23.34A10,10,0,0,0,869.67,199.33Zm80,0V176a10,10,0,0,0-10-10H916.33a10,10,0,0,0-10,10v23.33a10,10,0,0,0,10,10h23.34A10,10,0,0,0,949.67,199.33ZM868,331V317.67a10,10,0,0,0-10-10H678a10,10,0,0,0-10,10V331a10,10,0,0,0,10,10H858A10,10,0,0,0,868,331Z" style="fill:#fff"/></g></svg>