<svg xmlns="http://www.w3.org/2000/svg" viewBox="0 0 1024 512"><g id="frame"><rect width="1024" height="512" style="fill:none"/></g><g id="mouse-pointer"><path d="M410.39,255.6,184.67,33.47C148.24-3.77,83.5,22.48,83.5,74.94V402.23c0,51.79,63.24,78.65,100.7,41.94l22.43-22,16.44,38.13.11.26.12.26a59.42,59.42,0,0,0,77,30.61l39.29-16.31.23-.1.24-.1a58.93,58.93,0,0,0,31.79-32.58,58.22,58.22,0,0,0-.67-44.94L353.66,356.7h15.49c52.36,0,79.84-64.2,41.24-101.1Zm-41.13,56.11h-84L329.9,415.29a13.9,13.9,0,0,1-7.55,18.28l-39.3,16.32a14.39,14.39,0,0,1-18.66-7.4L222,344.13,152.7,412c-9.16,9-24.2,2.16-24.2-9.8V74.94c0-12.48,15.92-18.59,24.2-9.79L379.25,288C388.43,296.51,381.65,311.71,369.26,311.71Z"/><path d="M922.39,255.6,696.67,33.47C660.24-3.77,595.5,22.48,595.5,74.94V402.23c0,51.79,63.24,78.65,100.7,41.94l22.43-22,16.44,38.13.11.26.12.26a59.42,59.42,0,0,0,77,30.61l39.29-16.31.23-.1.24-.1a58.93,58.93,0,0,0,31.79-32.58,58.22,58.22,0,0,0-.67-44.94L865.66,356.7h15.49c52.36,0,79.84-64.2,41.24-101.1Zm-41.13,56.11h-84L841.9,415.29a13.9,13.9,0,0,1-7.55,18.28l-39.3,16.32a14.39,14.39,0,0,1-18.66-7.4L734,344.13,664.7,412c-9.16,9-24.2,2.16-24.2-9.8V74.94c0-12.48,15.92-18.59,24.2-9.79L891.25,288C900.43,296.51,893.65,311.71,881.26,311.71Z" style="fill:#fff"/></g></svg>