<svg xmlns="http://www.w3.org/2000/svg" viewBox="0 0 1024 512"><g id="frame"><rect width="1024" height="512" style="fill:none"/></g><g id="print"><path d="M391,263.5A22.5,22.5,0,1,0,413.5,286,22.5,22.5,0,0,0,391,263.5ZM421,181V109.64a45,45,0,0,0-13.18-31.82L359.18,29.18A45,45,0,0,0,327.36,16H119.58C103.79,16,91,29.43,91,46V181a75,75,0,0,0-75,75V376a15,15,0,0,0,15,15H91v90a15,15,0,0,0,15,15H406a15,15,0,0,0,15-15V391h60a15,15,0,0,0,15-15V256A75,75,0,0,0,421,181ZM136,61H316v45a15,15,0,0,0,15,15h45v60H136ZM376,451H136V391H376Zm75-105H61V256a30,30,0,0,1,30-30H421a30,30,0,0,1,30,30Z"/><path d="M903,263.5A22.5,22.5,0,1,0,925.5,286,22.5,22.5,0,0,0,903,263.5ZM933,181V109.64a45,45,0,0,0-13.18-31.82L871.18,29.18A45,45,0,0,0,839.36,16H631.58C615.79,16,603,29.43,603,46V181a75,75,0,0,0-75,75V376a15,15,0,0,0,15,15h60v90a15,15,0,0,0,15,15H918a15,15,0,0,0,15-15V391h60a15,15,0,0,0,15-15V256A75,75,0,0,0,933,181ZM648,61H828v45a15,15,0,0,0,15,15h45v60H648ZM888,451H648V391H888Zm75-105H573V256a30,30,0,0,1,30-30H933a30,30,0,0,1,30,30Z" style="fill:#fff"/></g></svg>