<svg xmlns="http://www.w3.org/2000/svg" viewBox="0 0 1024 512"><g id="frame"><rect width="1024" height="512" style="fill:none"/></g><g id="question"><path d="M256.77,16c-69.4,0-121.86,28.3-161.67,86.73a59.85,59.85,0,0,0,13.29,81.43l34.43,26.11a60.14,60.14,0,0,0,35.38,12.15c-11.1,17.81-16.7,38.07-16.7,60.51v10.72a59.58,59.58,0,0,0,15.35,40,97.51,97.51,0,1,0,145.49,0,59.68,59.68,0,0,0,15-33.16c26.52-15.8,90-45.84,90-129.58C427.31,82.7,342,16,256.77,16ZM249.6,451a52.5,52.5,0,1,1,52.5-52.5A52.56,52.56,0,0,1,249.6,451Zm43.09-165.2v7.85a14.85,14.85,0,0,1-14.85,14.85H221.35a14.85,14.85,0,0,1-14.85-14.85V282.93c0-44.23,33.53-61.91,58.88-76.12,21.73-12.19,35.06-20.47,35.06-36.6,0-21.35-27.23-35.51-49.24-35.51-28.7,0-41.95,13.58-60.56,37.08A14.86,14.86,0,0,1,170,174.41L135.58,148.3a14.88,14.88,0,0,1-3.28-20.24C161.55,85.12,198.78,61,256.77,61c60.72,0,125.54,47.4,125.54,109.89,0,83-89.62,84.26-89.62,114.91Z"/><path d="M768.77,16c-69.4,0-121.86,28.3-161.67,86.73a59.85,59.85,0,0,0,13.29,81.43l34.43,26.11a60.14,60.14,0,0,0,35.38,12.15c-11.1,17.81-16.7,38.07-16.7,60.51v10.72a59.58,59.58,0,0,0,15.35,40,97.51,97.51,0,1,0,145.49,0,59.68,59.68,0,0,0,15-33.16c26.52-15.8,90-45.84,90-129.58C939.31,82.7,854,16,768.77,16ZM761.6,451a52.5,52.5,0,1,1,52.5-52.5A52.56,52.56,0,0,1,761.6,451Zm43.09-165.2v7.85a14.85,14.85,0,0,1-14.85,14.85H733.35a14.85,14.85,0,0,1-14.85-14.85V282.93c0-44.23,33.53-61.91,58.88-76.12,21.73-12.19,35.06-20.47,35.06-36.6,0-21.35-27.23-35.51-49.24-35.51-28.7,0-42,13.58-60.56,37.08A14.86,14.86,0,0,1,682,174.41L647.58,148.3a14.88,14.88,0,0,1-3.28-20.24C673.55,85.12,710.78,61,768.77,61c60.72,0,125.54,47.4,125.54,109.89,0,83-89.62,84.26-89.62,114.91Z" style="fill:#fff"/></g></svg>