<svg xmlns="http://www.w3.org/2000/svg" viewBox="0 0 1024 512"><g id="frame"><rect width="1024" height="512" style="fill:none"/></g><g id="save"><path d="M480.94,120.94,391.06,31.06A51.42,51.42,0,0,0,354.7,16H67.43A51.43,51.43,0,0,0,16,67.43V444.57A51.42,51.42,0,0,0,67.43,496H444.57A51.42,51.42,0,0,0,496,444.57V157.3a51.42,51.42,0,0,0-15.06-36.36ZM307.43,67.43v85.71H170.29V67.43ZM438.14,444.57H73.86a6.43,6.43,0,0,1-6.43-6.43V73.86a6.43,6.43,0,0,1,6.43-6.43h45V178.86a25.71,25.71,0,0,0,25.71,25.71H333.14a25.72,25.72,0,0,0,25.72-25.71V71.59l83.83,83.83a6.46,6.46,0,0,1,1.88,4.55V438.14a6.43,6.43,0,0,1-6.43,6.43ZM256,230.29a94.29,94.29,0,1,0,94.29,94.28A94.39,94.39,0,0,0,256,230.29Zm0,137.14a42.86,42.86,0,1,1,42.86-42.86A42.91,42.91,0,0,1,256,367.43Z"/><path d="M992.94,120.94,903.06,31.06A51.42,51.42,0,0,0,866.7,16H579.43A51.43,51.43,0,0,0,528,67.43V444.57A51.42,51.42,0,0,0,579.43,496H956.57A51.42,51.42,0,0,0,1008,444.57V157.3a51.42,51.42,0,0,0-15.06-36.36ZM819.43,67.43v85.71H682.29V67.43ZM950.14,444.57H585.86a6.43,6.43,0,0,1-6.43-6.43V73.86a6.43,6.43,0,0,1,6.43-6.43h45V178.86a25.71,25.71,0,0,0,25.71,25.71H845.14a25.72,25.72,0,0,0,25.72-25.71V71.59l83.83,83.83a6.46,6.46,0,0,1,1.88,4.55V438.14a6.43,6.43,0,0,1-6.43,6.43ZM768,230.29a94.29,94.29,0,1,0,94.29,94.28A94.39,94.39,0,0,0,768,230.29Zm0,137.14a42.86,42.86,0,1,1,42.86-42.86A42.91,42.91,0,0,1,768,367.43Z" style="fill:#fff"/></g></svg>