<svg xmlns="http://www.w3.org/2000/svg" viewBox="0 0 1024 512"><g id="Layer_1" ><rect width="1024" height="512" style="fill:none"/></g><g id="search"><path d="M492.7,455.57,378.89,341.77a11.13,11.13,0,0,0-8-3.29H358.55A194.43,194.43,0,0,0,406,211C406,103.28,318.7,16,211,16S16,103.28,16,211s87.28,195,195,195a194.43,194.43,0,0,0,127.49-47.43v12.37a11.51,11.51,0,0,0,3.29,8L455.57,492.7a11.27,11.27,0,0,0,15.94,0l21.19-21.19A11.27,11.27,0,0,0,492.7,455.57ZM211,361A150,150,0,1,1,361,211,149.95,149.95,0,0,1,211,361Z"/><path d="M1004.7,455.57,890.89,341.77a11.13,11.13,0,0,0-8-3.29H870.55A194.43,194.43,0,0,0,918,211C918,103.28,830.7,16,723,16S528,103.28,528,211s87.28,195,195,195a194.43,194.43,0,0,0,127.49-47.43v12.37a11.51,11.51,0,0,0,3.29,8L967.57,492.7a11.27,11.27,0,0,0,15.94,0l21.19-21.19A11.27,11.27,0,0,0,1004.7,455.57ZM723,361A150,150,0,1,1,873,211,149.95,149.95,0,0,1,723,361Z" style="fill:#fff"/></g></svg>