<svg xmlns="http://www.w3.org/2000/svg" viewBox="0 0 1024 512"><g id="frame"><rect width="1024" height="512" style="fill:none"/></g><g id="tab"><path d="M230.68,87.82l159,158.58a12.87,12.87,0,0,1,0,18.21l-159,158.57a12.87,12.87,0,0,1-18.22,0l-21-21a12.72,12.72,0,0,1,.22-18.32l104-100.39H29.14a12.9,12.9,0,0,1-12.86-12.86v-30a12.9,12.9,0,0,1,12.86-12.86H295.71l-104-100.39a12.9,12.9,0,0,1-.22-18.32l21-21a12.69,12.69,0,0,1,18.22-.22ZM440.57,62.65V448.36a12.9,12.9,0,0,0,12.86,12.86h30a12.89,12.89,0,0,0,12.85-12.86V62.65a12.89,12.89,0,0,0-12.85-12.86h-30A12.9,12.9,0,0,0,440.57,62.65Z"/><path d="M742.68,87.82l159,158.58a12.87,12.87,0,0,1,0,18.21l-159,158.57a12.87,12.87,0,0,1-18.22,0l-21-21a12.72,12.72,0,0,1,.22-18.32l104-100.39H541.14a12.9,12.9,0,0,1-12.86-12.86v-30a12.9,12.9,0,0,1,12.86-12.86H807.71l-104-100.39a12.9,12.9,0,0,1-.22-18.32l21-21a12.69,12.69,0,0,1,18.22-.22ZM952.57,62.65V448.36a12.9,12.9,0,0,0,12.86,12.86h30a12.89,12.89,0,0,0,12.85-12.86V62.65a12.89,12.89,0,0,0-12.85-12.86h-30A12.9,12.9,0,0,0,952.57,62.65Z" style="fill:#fff"/></g></svg>