<svg xmlns="http://www.w3.org/2000/svg" viewBox="0 0 1024 512"><g id="trash"><rect width="512" height="512" style="fill:none"/><rect x="512" width="512" height="512" style="fill:none"/><rect width="512" height="512" style="fill:none"/><rect x="512" width="512" height="512" style="fill:none"/><path d="M451,91H373.75L341.88,37.84A45,45,0,0,0,303.25,16h-94.5a45,45,0,0,0-38.62,21.84L138.25,91H61a15,15,0,0,0-15,15v15a15,15,0,0,0,15,15H76L95.88,453.81A45,45,0,0,0,140.78,496H371.22a45,45,0,0,0,44.91-42.19L436,136h15a15,15,0,0,0,15-15V106A15,15,0,0,0,451,91ZM208.75,61h94.5l18,30H190.75ZM371.22,451H140.79L121.1,136H390.92Z"/><path d="M963,91H885.75L853.88,37.84A45,45,0,0,0,815.25,16h-94.5a45,45,0,0,0-38.62,21.84L650.25,91H573a15,15,0,0,0-15,15v15a15,15,0,0,0,15,15h15l19.88,317.81A45,45,0,0,0,652.78,496H883.22a45,45,0,0,0,44.91-42.19L948,136h15a15,15,0,0,0,15-15V106A15,15,0,0,0,963,91ZM720.75,61h94.5l18,30H702.75ZM883.22,451H652.79L633.1,136H902.92Z" style="fill:#fff"/></g></svg>